REM DIRINDEX 1\2\6,1\2\7,1\2\8,1\2\9,1\3\10,1\3\11,1\4\12,1\4\13,1\4\14,1\5\15,1\5\16,1\5\17
REM DIRNAME folder01,folder02,folder03,folder04,folder05,folder06,folder07,folder08,folder09,folder10,folder11,folder12,folder13,folder14,folder15,folder16,folder17
TITLE ""
FILE "1900_3_048 sec08_0782_0800.mp3" MP3
  TRACK 01 AUDIO
    TITLE "0:"
    INDEX 01 00:00:00
  TRACK 02 AUDIO
    TITLE "17:cjc020_7537"
    INDEX 01 00:00:17
  TRACK 03 AUDIO
    TITLE "0:"
    INDEX 01 00:01:48
  TRACK 04 AUDIO
    TITLE "16:cjc020_7538"
    INDEX 01 00:01:52
  TRACK 05 AUDIO
    TITLE "0:"
    INDEX 01 00:02:67
  TRACK 06 AUDIO
    TITLE "17:cjc020_7539"
    INDEX 01 00:03:51
  TRACK 07 AUDIO
    TITLE "0:"
    INDEX 01 00:04:60
  TRACK 08 AUDIO
    TITLE "16:cjc020_7540"
    INDEX 01 00:04:62
  TRACK 09 AUDIO
    TITLE "0:"
    INDEX 01 00:05:50
  TRACK 10 AUDIO
    TITLE "17:cjc020_7541"
    INDEX 01 00:06:49
  TRACK 11 AUDIO
    TITLE "0:"
    INDEX 01 00:09:24
  TRACK 12 AUDIO
    TITLE "16:cjc020_7542"
    INDEX 01 00:09:30
  TRACK 13 AUDIO
    TITLE "0:"
    INDEX 01 00:10:49
  TRACK 14 AUDIO
    TITLE "17:cjc020_7543"
    INDEX 01 00:11:29
  TRACK 15 AUDIO
    TITLE "0:"
    INDEX 01 00:14:07
  TRACK 16 AUDIO
    TITLE "16:cjc020_7544"
    INDEX 01 00:14:09
  TRACK 17 AUDIO
    TITLE "0:"
    INDEX 01 00:15:32
  TRACK 18 AUDIO
    TITLE "17:cjc020_7545"
    INDEX 01 00:16:16
  TRACK 19 AUDIO
    TITLE "0:"
    INDEX 01 00:17:39
  TRACK 20 AUDIO
    TITLE "16:cjc020_7546"
    INDEX 01 00:17:45
  TRACK 21 AUDIO
    TITLE "0:"
    INDEX 01 00:18:68
  TRACK 22 AUDIO
    TITLE "17:cjc020_7547"
    INDEX 01 00:19:48
  TRACK 23 AUDIO
    TITLE "0:"
    INDEX 01 00:20:69
  TRACK 24 AUDIO
    TITLE "16:cjc020_7548"
    INDEX 01 00:21:00
  TRACK 25 AUDIO
    TITLE "0:"
    INDEX 01 00:22:11
  TRACK 26 AUDIO
    TITLE "17:cjc020_7549"
    INDEX 01 00:22:72
  TRACK 27 AUDIO
    TITLE "0:"
    INDEX 01 00:24:47
  TRACK 28 AUDIO
    TITLE "16:cjc020_7550"
    INDEX 01 00:24:49
  TRACK 29 AUDIO
    TITLE "0:"
    INDEX 01 00:25:64
  TRACK 30 AUDIO
    TITLE "17:cjc020_7551"
    INDEX 01 00:26:50
  TRACK 31 AUDIO
    TITLE "0:"
    INDEX 01 00:27:53
  TRACK 32 AUDIO
    TITLE "16:cjc020_7552"
    INDEX 01 00:27:59
  TRACK 33 AUDIO
    TITLE "0:"
    INDEX 01 00:29:07
  TRACK 34 AUDIO
    TITLE "17:cjc020_7553"
    INDEX 01 00:29:64
  TRACK 35 AUDIO
    TITLE "0:"
    INDEX 01 00:30:65
  TRACK 36 AUDIO
    TITLE "16:cjc020_7554"
    INDEX 01 00:30:73
  TRACK 37 AUDIO
    TITLE "0:"
    INDEX 01 00:32:17
  TRACK 38 AUDIO
    TITLE "17:cjc020_7555"
    INDEX 01 00:33:01
  TRACK 39 AUDIO
    TITLE "0:"
    INDEX 01 00:34:18
  TRACK 40 AUDIO
    TITLE "16:cjc020_7556"
    INDEX 01 00:34:20
  TRACK 41 AUDIO
    TITLE "0:"
    INDEX 01 00:35:31
  TRACK 42 AUDIO
    TITLE "17:cjc020_7557"
    INDEX 01 00:36:09
  TRACK 43 AUDIO
    TITLE "0:"
    INDEX 01 00:37:18
  TRACK 44 AUDIO
    TITLE "16:cjc020_7558"
    INDEX 01 00:37:20
  TRACK 45 AUDIO
    TITLE "0:"
    INDEX 01 00:38:31
  TRACK 46 AUDIO
    TITLE "17:cjc020_7559"
    INDEX 01 00:39:15
  TRACK 47 AUDIO
    TITLE "0:"
    INDEX 01 00:41:51
  TRACK 48 AUDIO
    TITLE "16:cjc020_7560"
    INDEX 01 00:41:55
  TRACK 49 AUDIO
    TITLE "0:"
    INDEX 01 00:43:05
  TRACK 50 AUDIO
    TITLE "17:cjc020_7561"
    INDEX 01 00:43:62
  TRACK 51 AUDIO
    TITLE "0:"
    INDEX 01 00:45:22
  TRACK 52 AUDIO
    TITLE "16:cjc020_7562"
    INDEX 01 00:45:24
  TRACK 53 AUDIO
    TITLE "0:"
    INDEX 01 00:46:53
  TRACK 54 AUDIO
    TITLE "17:cjc020_7563"
    INDEX 01 00:47:32
  TRACK 55 AUDIO
    TITLE "0:"
    INDEX 01 00:49:06
  TRACK 56 AUDIO
    TITLE "16:cjc020_7564"
    INDEX 01 00:49:14
  TRACK 57 AUDIO
    TITLE "0:"
    INDEX 01 00:50:27
  TRACK 58 AUDIO
    TITLE "17:cjc020_7565"
    INDEX 01 00:51:07
  TRACK 59 AUDIO
    TITLE "0:"
    INDEX 01 00:52:04
  TRACK 60 AUDIO
    TITLE "16:cjc020_7566"
    INDEX 01 00:52:08
  TRACK 61 AUDIO
    TITLE "0:"
    INDEX 01 00:53:06
  TRACK 62 AUDIO
    TITLE "17:cjc020_7567"
    INDEX 01 00:53:66
  TRACK 63 AUDIO
    TITLE "0:"
    INDEX 01 00:55:32
  TRACK 64 AUDIO
    TITLE "16:cjc020_7568"
    INDEX 01 00:55:36
  TRACK 65 AUDIO
    TITLE "0:"
    INDEX 01 00:56:41
  TRACK 66 AUDIO
    TITLE "17:cjc020_7569"
    INDEX 01 00:57:23
  TRACK 67 AUDIO
    TITLE "0:"
    INDEX 01 00:58:38
  TRACK 68 AUDIO
    TITLE "16:cjc020_7570"
    INDEX 01 00:58:46
  TRACK 69 AUDIO
    TITLE "0:"
    INDEX 01 00:59:61
  TRACK 70 AUDIO
    TITLE "17:cjc020_7571"
    INDEX 01 01:00:43
  TRACK 71 AUDIO
    TITLE "0:"
    INDEX 01 01:01:70
  TRACK 72 AUDIO
    TITLE "16:cjc020_7572"
    INDEX 01 01:01:72
  TRACK 73 AUDIO
    TITLE "0:"
    INDEX 01 01:03:20
  TRACK 74 AUDIO
    TITLE "17:cjc020_7573"
    INDEX 01 01:04:03
  TRACK 75 AUDIO
    TITLE "0:"
    INDEX 01 01:05:46
  TRACK 76 AUDIO
    TITLE "16:cjc020_7574"
    INDEX 01 01:05:54
  TRACK 77 AUDIO
    TITLE "0:"
    INDEX 01 01:07:19
